<svg width="52" height="48" viewBox="0 0 52 48" fill="none" xmlns="http://www.w3.org/2000/svg">
<path d="M46.9268 36C48.2723 36 49.5627 35.4943 50.5141 34.5941C51.4655 33.6939 52 32.473 52 31.2V4.8C52 3.52696 51.4655 2.30606 50.5141 1.40589C49.5627 0.505713 48.2723 0 46.9268 0H20.1912C21.079 1.464 21.561 3.12 21.561 4.8H46.9268V31.2H24.0976V36M34.2439 12V16.8H19.0244V48H13.9512V33.6H8.87805V48H3.80488V28.8H0V16.8C0 15.527 0.534493 14.3061 1.4859 13.4059C2.4373 12.5057 3.72768 12 5.07317 12H34.2439ZM16.4878 4.8C16.4878 6.07304 15.9533 7.29394 15.0019 8.19411C14.0505 9.09429 12.7601 9.6 11.4146 9.6C10.0691 9.6 8.77876 9.09429 7.82736 8.19411C6.87596 7.29394 6.34146 6.07304 6.34146 4.8C6.34146 3.52696 6.87596 2.30606 7.82736 1.40589C8.77876 0.505713 10.0691 0 11.4146 0C12.7601 0 14.0505 0.505713 15.0019 1.40589C15.9533 2.30606 16.4878 3.52696 16.4878 4.8Z" fill="#494080"/>
</svg>
