<svg width="118" height="134" viewBox="0 0 118 134" fill="none" xmlns="http://www.w3.org/2000/svg">
<path d="M104.889 31.9048H91.7778C91.7778 14.0381 77.3556 0 59 0C40.6444 0 26.2222 14.0381 26.2222 31.9048H13.1111C5.9 31.9048 0 37.6476 0 44.6667V121.238C0 128.257 5.9 134 13.1111 134H104.889C112.1 134 118 128.257 118 121.238V44.6667C118 37.6476 112.1 31.9048 104.889 31.9048ZM59 12.7619C70.1444 12.7619 78.6667 21.0571 78.6667 31.9048H39.3333C39.3333 21.0571 47.8556 12.7619 59 12.7619ZM104.889 121.238H13.1111V44.6667H104.889V121.238ZM59 70.1905C47.8556 70.1905 39.3333 61.8952 39.3333 51.0476H26.2222C26.2222 68.9143 40.6444 82.9524 59 82.9524C77.3556 82.9524 91.7778 68.9143 91.7778 51.0476H78.6667C78.6667 61.8952 70.1444 70.1905 59 70.1905Z" fill="#494080"/>
</svg>
