<svg width="126" height="120" viewBox="0 0 126 120" fill="none" xmlns="http://www.w3.org/2000/svg">
<path d="M96.075 120L78.75 101.053L86.058 93.6L96.075 103.642L118.692 80.9684L126 89.8737L96.075 120ZM110.25 0C111.085 0 111.887 0.332706 112.477 0.924927C113.068 1.51715 113.4 2.32037 113.4 3.15789V65.3053C109.431 63.9158 105.21 63.1579 100.8 63.1579V17.0526L81.9 24.3789V68.2105C76.86 71.1789 72.45 75.2211 69.3 80.0842V24.4421L44.1 15.6V89.2421L63.315 96L63 101.053C63 103.958 63.315 106.863 63.945 109.579L37.8 100.421L4.158 113.495L3.15 113.684C2.31457 113.684 1.51335 113.352 0.922614 112.759C0.331875 112.167 0 111.364 0 110.526V15.0316C0 13.5789 0.944999 12.4421 2.268 12L37.8 0L75.6 13.2632L109.242 0.189474L110.25 0ZM12.6 21.8526V96.6947L31.5 89.3684V15.4737L12.6 21.8526Z" fill="#494080"/>
</svg>
