<svg width="135" height="135" viewBox="0 0 135 135" fill="none" xmlns="http://www.w3.org/2000/svg">
<path d="M74.0957 0V0.135203V13.6555C103.802 17.306 124.846 44.2789 121.192 73.9559C118.079 98.5629 98.7266 118.1 74.0957 121.007V134.527C111.313 130.809 138.38 97.8192 134.658 60.6385C131.613 28.5278 106.102 3.17727 74.0957 0ZM60.5622 0.202804C47.3671 1.48723 34.781 6.55734 24.4956 15.0751L34.172 25.0801C41.7507 18.996 50.8858 15.0751 60.5622 13.7231V0.202804ZM14.9545 24.6069C6.42839 34.8823 1.35335 47.3886 0 60.6385H13.5335C14.8191 51.0391 18.6085 41.9129 24.6309 34.2739L14.9545 24.6069ZM0.0676672 74.1587C1.42101 87.4086 6.63139 99.9149 15.0221 110.19L24.6309 100.523C18.6762 92.8843 14.8191 83.7581 13.6011 74.1587H0.0676672ZM34.172 110.461L24.4956 119.722C34.7133 128.24 47.2994 133.58 60.5622 135V121.48C50.9535 120.263 41.8184 116.41 34.172 110.461ZM99.9446 88.9634L72.1333 61.1793C74.9077 54.1487 73.3513 45.9014 67.5319 40.1552C61.4419 34.0035 52.3068 32.7867 44.9311 36.1668L58.0585 49.2814L48.9234 58.4752L35.4577 45.2929C31.8036 52.6615 33.4953 61.7877 39.45 67.9394C45.2694 73.7531 53.5248 75.2404 60.5622 72.5363L88.3735 100.253C89.5915 101.537 91.4185 101.537 92.6365 100.253L99.6739 93.2899C101.163 92.0731 101.163 89.9099 99.9446 88.9634Z" fill="#494080"/>
</svg>
