<svg width="132" height="132" viewBox="0 0 132 132" fill="none" xmlns="http://www.w3.org/2000/svg">
<path d="M66 0C57.3328 0 48.7504 1.70714 40.7429 5.02395C32.7354 8.34076 25.4596 13.2023 19.331 19.331C6.95355 31.7084 0 48.4957 0 66C0 83.5043 6.95355 100.292 19.331 112.669C25.4596 118.798 32.7354 123.659 40.7429 126.976C48.7504 130.293 57.3328 132 66 132C83.5043 132 100.292 125.046 112.669 112.669C125.046 100.292 132 83.5043 132 66C132 58.344 130.614 50.754 127.974 43.626L117.414 54.186C118.338 58.08 118.8 62.04 118.8 66C118.8 80.0034 113.237 93.4333 103.335 103.335C93.4333 113.237 80.0034 118.8 66 118.8C51.9966 118.8 38.5667 113.237 28.6648 103.335C18.7628 93.4333 13.2 80.0034 13.2 66C13.2 51.9966 18.7628 38.5667 28.6648 28.6648C38.5667 18.7628 51.9966 13.2 66 13.2C69.96 13.2 73.92 13.662 77.814 14.586L88.44 3.96C81.246 1.386 73.656 0 66 0ZM112.2 0L85.8 26.4V36.3L68.97 53.13C67.98 52.8 66.99 52.8 66 52.8C62.4991 52.8 59.1417 54.1907 56.6662 56.6662C54.1907 59.1417 52.8 62.4991 52.8 66C52.8 69.5009 54.1907 72.8583 56.6662 75.3338C59.1417 77.8093 62.4991 79.2 66 79.2C69.5009 79.2 72.8583 77.8093 75.3338 75.3338C77.8093 72.8583 79.2 69.5009 79.2 66C79.2 65.01 79.2 64.02 78.87 63.03L95.7 46.2H105.6L132 19.8H112.2V0ZM66 26.4C55.4974 26.4 45.425 30.5721 37.9986 37.9986C30.5721 45.425 26.4 55.4974 26.4 66C26.4 76.5026 30.5721 86.575 37.9986 94.0014C45.425 101.428 55.4974 105.6 66 105.6C76.5026 105.6 86.575 101.428 94.0014 94.0014C101.428 86.575 105.6 76.5026 105.6 66H92.4C92.4 73.0017 89.6186 79.7167 84.6676 84.6676C79.7167 89.6186 73.0017 92.4 66 92.4C58.9983 92.4 52.2833 89.6186 47.3324 84.6676C42.3814 79.7167 39.6 73.0017 39.6 66C39.6 58.9983 42.3814 52.2833 47.3324 47.3324C52.2833 42.3814 58.9983 39.6 66 39.6V26.4Z" fill="#494080"/>
</svg>
